<?xml version="1.0" standalone="no"?>
<!DOCTYPE svg PUBLIC "-//W3C//DTD SVG 20010904//EN"
 "http://www.w3.org/TR/2001/REC-SVG-20010904/DTD/svg10.dtd">
<svg version="1.0" xmlns="http://www.w3.org/2000/svg"
 width="512pt" height="512pt" viewBox="0 0 512 512"
 preserveAspectRatio="xMidYMid meet">
<metadata>
Created by Kahou
</metadata>
<g transform="translate(30,512) scale(0.100000,-0.100000)"
fill="#0069c0" stroke="none">
<path d="M2408 4946 c-20 -7 -139 -72 -265 -144 -514 -294 -504 -287 -506
-355 -2 -61 20 -84 148 -160 66 -38 167 -98 225 -132 58 -34 404 -237 769
-451 638 -373 667 -388 723 -392 103 -8 119 3 368 252 123 123 229 235 237
250 36 68 25 162 -26 231 -30 40 -173 126 -1230 732 -334 192 -356 200 -443
169z"/>
<path d="M1260 4312 c-833 -481 -815 -470 -850 -537 l-25 -49 -3 -411 c-2
-225 -1 -433 3 -462 5 -40 13 -59 38 -83 29 -29 37 -31 82 -28 37 4 70 17 125
50 41 25 422 253 846 506 423 253 776 467 783 476 21 25 25 89 7 124 -15 29
-95 80 -696 435 -131 78 -139 77 -310 -21z"/>
<path d="M1060 2948 c-601 -365 -646 -394 -664 -433 -15 -31 -17 -87 -14 -547
3 -566 2 -550 68 -615 18 -18 132 -89 254 -159 122 -70 282 -163 356 -206 144
-83 190 -96 238 -62 54 38 52 -7 52 1054 l0 980 -32 35 c-59 64 -80 61 -258
-47z"/>
<path fill="#62efff" d="M3375 1799 c-39 -23 -146 -84 -238 -136 -93 -52 -192 -109 -220 -127
-29 -18 -87 -52 -129 -75 -88 -48 -118 -80 -118 -125 1 -53 22 -75 136 -139
60 -35 236 -136 391 -225 222 -128 289 -162 318 -162 28 0 86 29 263 131 125
72 239 142 254 156 66 63 83 166 39 251 -29 55 -437 456 -485 476 -21 9 -62
16 -90 16 -42 0 -64 -7 -121 -41z"/>
<path fill="#62efff" d="M1504 1789 c-17 -5 -39 -18 -50 -30 -18 -20 -19 -44 -22 -496 l-3
-475 33 -30 c18 -17 150 -98 293 -180 675 -390 634 -368 700 -368 63 0 102 17
313 139 243 141 236 137 367 211 130 74 163 102 171 148 13 70 -7 90 -208 205
-101 58 -253 145 -338 195 -911 526 -1179 678 -1205 685 -11 3 -34 1 -51 -4z"/>
</g>
</svg>
